<?xml version="1.0" encoding="utf-8"?>
<!-- Generator: Adobe Illustrator 27.5.0, SVG Export Plug-In . SVG Version: 6.00 Build 0)  -->
<svg version="1.1" id="Capa_1" xmlns="http://www.w3.org/2000/svg" xmlns:xlink="http://www.w3.org/1999/xlink" x="0px" y="0px"
	 viewBox="0 0 2122 2122" style="enable-background:new 0 0 2122 2122;" xml:space="preserve">
<path style="fill:#AA7435;" d="M1820.463,1833.778l-359.654-359.805c14.141-23.612,26.256-49.332,35.854-76.854
	c60.765-174.151-2.168-354.465-140.551-402.745c-45.895-16.005-94.319-15.484-140.75-1.274
	c-51.582,15.757-100.729,48.399-141.257,94.008l-148.128-148.19c104.353-81.288,153.011-204.661,111.485-310.714
	c-17.735-45.26-49.652-81.673-90.665-107.671c-82.645-52.438-202.27-62.596-317.071-17.642
	c-33.198,12.997-63.56,29.653-90.56,49.052L215.91,228.55l308.998,334.138C421.992,643.989,374.262,766.422,415.51,871.765
	c20.034,51.155,58.197,91.006,107.143,117.311c81.612,43.886,193.228,50.066,300.594,8.002
	c25.212-9.871,48.789-21.853,70.499-35.543l150.94,163.221c-19.912,29.016-36.648,61.754-49.132,97.538
	c-60.765,174.151,2.168,354.465,140.546,402.745c51.873,18.097,106.972,15.067,158.801-4.96
	c45.659-17.631,88.782-48.468,124.906-89.684l347.863,376.166l63.376-61.34L1820.463,1833.778z"/>
<path style="fill:#B5BA27;" d="M1356.113,994.374c-45.895-16.005-94.319-15.484-140.75-1.274
	c-51.582,15.757-100.729,48.399-141.257,94.008c-10.411,11.715-20.252,24.287-29.42,37.648
	c-19.912,29.016-36.648,61.754-49.132,97.538c-60.765,174.151,2.168,354.465,140.546,402.745
	c51.873,18.097,106.972,15.067,158.801-4.96c45.659-17.631,88.782-48.468,124.906-89.684c14.977-17.089,28.75-35.964,41.003-56.422
	c14.141-23.612,26.256-49.332,35.854-76.854C1557.428,1222.968,1494.495,1042.654,1356.113,994.374z"/>
<path style="fill:#B5BA27;" d="M1037.463,628.204c-17.735-45.26-49.652-81.673-90.665-107.671
	c-82.645-52.438-202.27-62.596-317.071-17.642c-33.198,12.997-63.56,29.653-90.56,49.052c-4.863,3.495-9.618,7.078-14.259,10.745
	C421.992,643.989,374.262,766.422,415.51,871.765c20.034,51.155,58.197,91.006,107.143,117.311
	c81.612,43.886,193.228,50.066,300.594,8.002c25.212-9.871,48.789-21.853,70.499-35.543c11.257-7.098,22.012-14.655,32.233-22.617
	C1030.331,857.629,1078.989,734.256,1037.463,628.204z"/>
<path style="fill:#747A24;" d="M511.622,733.066c-37.199,7.206-59.201,55.104-49.155,106.979
	c10.051,51.878,48.351,88.092,85.544,80.887c37.199-7.206,59.201-55.101,49.154-106.979
	C587.115,762.074,548.815,725.863,511.622,733.066z"/>
<path style="fill:#869025;" d="M1037.463,628.204c-17.735-45.26-49.652-81.673-90.665-107.671
	c-2.26,62.078-10.329,123.871-28.472,183.13c-24.823,81.128-69.603,157.69-135.654,210.952
	c-71.016,57.269-162.558,82.348-252.906,75.026c-2.412-0.181-4.799-0.388-7.113-0.565c81.612,43.886,193.228,50.066,300.594,8.002
	c25.212-9.871,48.789-21.853,70.499-35.543c11.257-7.098,22.012-14.655,32.233-22.617
	C1030.331,857.629,1078.989,734.256,1037.463,628.204z"/>
<path style="fill:#C5C94A;" d="M874.16,526.815c-0.453-3.978-2.475-7.617-4.872-10.826c-17.442-23.362-51.269-25.447-80.351-23.457
	c-100.731,6.894-202.831,39.208-276.643,108.097c-19.464,18.168-66.913,67.338-36.731,93.367
	c30.124,25.973,92.083,12.848,122.114-5.362c17.096-10.37,31.522-24.504,46.368-37.903c38.987-35.184,83.401-66.755,134.568-78.565
	c27.937-6.448,58.402-7.289,82.09-23.447C868.152,543.639,875.183,535.775,874.16,526.815z"/>
<path style="fill:#ECEDA6;" d="M505.045,637.741c-7.094,9.381-12.448,22.4-6.582,32.594c3.396,5.896,10.109,9.467,16.891,9.93
	c16.565,1.128,28.59-12.992,38.339-24.295c12.497-14.495,26.612-27.501,42.109-38.728c2.217-1.607,4.517-3.133,6.874-4.609
	c14.144-8.862,30.227-15.975,41.247-28.256c10.309-11.486-9.954-15.388-17.851-14.943c-23.172,1.313-46.383,12.86-66.422,23.891
	C539.105,604.633,519.31,618.883,505.045,637.741z"/>
<path style="fill:#ECEDA6;" d="M669.755,575.044c11.815-0.097,25.067-9.7,37.048-11.771c14.451-2.497,29.393-1.905,43.601-5.542
	c6.665-1.708,13.33-4.5,17.9-9.639c4.575-5.143,6.524-13.065,3.21-19.091c-1.798-3.269-4.911-5.657-8.282-7.257
	c-7.81-3.707-16.892-3.503-25.461-2.38c-25.827,3.383-50.573,14.601-70.144,31.795C659.904,557.946,654.267,575.171,669.755,575.044
	z"/>
<path style="fill:#B5BA27;" d="M951.831,855.987c22.387-6.816,33.754-28.424,43.673-48.034
	c14.266-28.207,22.972-59.116,26.987-90.414c3.439-26.777,3.016-56.075-12.697-78.029c-2.119-2.96-4.57-5.805-7.781-7.522
	c-9.203-4.918-21.111,1.647-25.92,10.911c-4.809,9.262-4.589,20.2-4.799,30.636c-0.599,30.2-5.788,60.295-15.211,88.989
	c-4.589,13.971-10.183,27.61-16.735,40.772c-5.613,11.264-17.53,25.079-18.46,37.942
	C919.587,859.305,938.33,860.098,951.831,855.987z"/>
<path style="fill:#B5BA27;" d="M908.245,887.029c-3.532-5.315-11.406-6.054-17.277-3.549c-5.871,2.507-10.309,7.403-14.884,11.852
	c-11.079,10.765-24.02,19.607-38.071,26.017c-5.179,2.36-10.572,4.434-15.094,7.886c-4.521,3.452-8.151,8.633-8.112,14.322
	c0.146,22.48,34.928,18.204,47.474,10.862c19.81-11.59,38.295-29.625,46.051-51.593C910.15,897.672,911.27,891.582,908.245,887.029z
	"/>
<path style="fill:#869025;" d="M1356.113,994.374c-45.895-16.005-94.319-15.484-140.75-1.274
	c45.647,42.129,87.303,88.478,120.472,140.828c45.423,71.659,74.387,155.493,71.82,240.302
	c-2.762,91.191-43.318,177.006-107.698,240.818c-1.705,1.713-3.415,3.391-5.057,5.031c45.659-17.631,88.782-48.468,124.906-89.684
	c14.977-17.089,28.75-35.964,41.003-56.422c14.141-23.612,26.256-49.332,35.854-76.854
	C1557.428,1222.968,1494.495,1042.654,1356.113,994.374z"/>
<path style="fill:#C5C94A;" d="M1172.844,1052.325c-3.318-2.246-7.396-3.077-11.391-3.35c-29.086-1.971-52.692,22.351-70.114,45.725
	c-60.341,80.95-102.28,179.486-98.041,280.363c1.121,26.601,7.552,94.628,46.962,88.66c39.323-5.956,69.695-61.532,75.425-96.182
	c3.259-19.729,1.924-39.881,1.418-59.873c-1.33-52.497,3.62-106.762,27.965-153.291c13.291-25.406,32.488-49.074,35.64-77.573
	C1181.701,1067.838,1180.308,1057.382,1172.844,1052.325z"/>
<path style="fill:#ECEDA6;" d="M1061.249,1314.268c2.479-16.504,7.546-33.345,5.403-49.705c-2.008-15.303-18.164-2.463-22.963,3.825
	c-14.09,18.441-20.434,43.576-25.106,65.971c-4.794,22.957-6.865,47.262-1.837,70.365c2.504,11.493,8.901,24.032,20.458,26.214
	c6.685,1.262,13.769-1.508,18.534-6.358c11.644-11.839,8.75-30.156,6.514-44.916c-2.86-18.923-3.547-38.103-1.983-57.179
	C1060.493,1319.759,1060.834,1317.019,1061.249,1314.268z"/>
<path style="fill:#ECEDA6;" d="M1056.868,1224.946c0.127,10.283,9.53,25.771,19.513,13.934c7.62-9.031,8.96-25.342,15.186-35.786
	c7.513-12.594,17.691-23.552,24.175-36.701c3.045-6.17,5.267-13.047,4.336-19.866c-0.926-6.816-5.666-13.454-12.399-14.862
	c-3.654-0.763-7.494,0.044-10.899,1.562c-7.898,3.515-13.656,10.54-18.382,17.778
	C1064.152,1172.812,1056.557,1198.9,1056.868,1224.946z"/>
<path style="fill:#B5BA27;" d="M1347.45,1074.106c22.533,20.117,41.997,43.646,57.646,69.481
	c7.615,12.577,14.329,25.703,20.054,39.247c4.896,11.591,7.625,29.635,16.784,38.711c12.867,12.751,25.671-0.962,31.343-13.885
	c9.393-21.43,0.395-44.126-8.034-64.421c-12.127-29.191-29.92-55.925-51.06-79.347c-18.09-20.042-40.604-38.794-67.498-41.157
	c-3.625-0.317-7.381-0.309-10.777,1.011c-9.725,3.783-12.492,17.094-8.59,26.775
	C1331.221,1060.2,1339.665,1067.156,1347.45,1074.106z"/>
<path style="fill:#B5BA27;" d="M1468.463,1260.956c-6.333-0.779-12.02,4.716-13.944,10.801c-1.92,6.088-1.092,12.643-0.692,19.014
	c0.96,15.418-0.755,30.996-5.037,45.837c-1.578,5.467-3.518,10.909-3.84,16.59c-0.321,5.681,1.247,11.807,5.593,15.483
	c17.16,14.521,36.556-14.665,39.147-28.967c4.103-22.582,2.446-48.355-9.184-68.543
	C1477.779,1266.435,1473.886,1261.621,1468.463,1260.956z"/>
<path style="fill:#747A24;" d="M1279.889,1516.327c-34.648,14.903-71.43,24.222-108.814,27.881
	c-12.032-25.827-16.468-55.144-11.371-83.598c1.374-7.681-10.387-10.979-11.776-3.245c-5.316,29.692-1.439,60.453,10.249,87.879
	c-17.959,1.13-36.018,0.96-54.006-0.52c-7.83-0.643-7.791,11.569,0,12.21c19.905,1.638,39.847,1.665,59.643,0.139
	c9.436,17.828,22.352,33.834,38.325,46.655c6.066,4.872,14.762-3.713,8.629-8.634c-13.608-10.922-24.964-24.339-33.639-39.283
	c37.411-4.214,74.139-13.982,108.917-28.941C1293.248,1523.774,1287.036,1513.252,1279.889,1516.327z"/>
</svg>
